<svg width="224" height="224" version="1.1" xmlns="http://www.w3.org/2000/svg" xmlns:xlink="http://www.w3.org/1999/xlink"><path d="M185.02 81.16L185.02 81.16Q178.30 86.31 176.51 92.81L176.51 92.81L168.22 127.75Q159.26 159.56 140.22 169.19L140.22 169.19L138.43 170.09Q133.06 170.09 128.80 162.70L128.80 162.70Q126.56 158.89 126.34 158.66L126.34 158.66L116.70 145.90Q115.81 144.33 115.14 142.98L115.14 142.98L115.14 142.31L134.62 147.46Q137.76 148.14 140.45 148.14L140.45 148.14Q160.16 128.87 163.74 90.12L163.74 90.12L164.42 78.25Q162.62 69.06 139.10 75.34L139.10 75.34L131.04 77.80Q126.78 77.58 123.87 73.77L123.87 73.77Q122.53 71.98 122.53 70.41L122.53 70.41Q122.53 68.39 129.25 61.45L129.25 61.45Q131.04 59.43 131.71 58.31L131.71 58.31Q142.02 42.63 152.54 21.80L152.54 21.80Q152.54 19.34 151.20 18.66L151.20 18.66Q147.17 16.87 115.36 24.04L115.36 24.04Q102.59 26.95 99.90 28.30L99.90 28.30Q106.85 33.00 109.54 39.05L109.54 39.05Q110.88 42.18 106.18 48.23L106.18 48.23L103.71 52.04L93.86 73.77Q66.30 127.98 25.76 145.00L25.76 145.00L21.06 145.00L21.06 143.43Q64.06 109.83 80.19 72.20L80.19 72.20Q88.93 51.37 89.60 49.35L89.60 49.35Q92.74 39.50 92.74 30.09L92.74 30.09Q88.93 29.42 74.14 34.57L74.14 34.57Q56.67 40.84 50.40 37.03L50.40 37.03L49.50 36.58Q46.14 34.12 46.14 30.31L46.14 30.31L48.16 28.97Q59.14 28.74 77.28 25.16L77.28 25.16L136.86 11.94L151.42 6.57Q152.32 6.34 153.44 6.34L153.44 6.34Q159.26 5.67 168.22 11.27L168.22 11.27Q175.62 15.98 175.39 20.01L175.39 20.01Q160.83 27.40 141.57 60.10L141.57 60.10Q140.45 61.90 139.55 63.46L139.55 63.46Q139.55 66.38 142.24 67.50L142.24 67.50Q146.72 69.51 157.02 67.05L157.02 67.05Q168.22 64.58 174.72 68.62L174.72 68.62Q176.51 69.74 178.30 71.53L178.30 71.53L183.46 76.46Q184.80 78.47 185.02 81.16Z" stroke="#000" fill="black" /></svg>