<svg width="224" height="224" version="1.1" xmlns="http://www.w3.org/2000/svg" xmlns:xlink="http://www.w3.org/1999/xlink"><path d="M201.38 103.41L201.38 103.41Q201.38 105.87 198.69 106.77L198.69 106.77Q198.02 106.99 164.19 109.68L164.19 109.68Q155.23 110.35 152.10 111.03L152.10 111.03Q150.98 144.40 150.98 190.99L150.98 190.99Q150.98 209.81 145.38 216.98L145.38 216.98Q137.54 217.20 138.88 175.09L138.88 175.09L140 113.27Q133.06 113.94 113.34 119.31L113.34 119.31Q108.19 120.66 103.04 117.97L103.04 117.97Q100.58 116.63 98.56 114.61L98.56 114.61Q98.78 111.92 134.85 105.87L134.85 105.87Q138.43 105.43 139.55 105.20L139.55 105.20L139.33 85.94L134.40 74.07Q122.98 75.19 117.15 72.95L117.15 72.95L113.12 70.71L112.67 70.26Q112.67 68.24 115.81 67.35L115.81 67.35Q128.80 66.45 152.99 58.16L152.99 58.16Q163.74 54.80 165.76 54.58L165.76 54.58Q169.79 54.13 173.15 55.03L173.15 55.03Q176.96 56.15 178.53 58.61L178.53 58.61Q178.53 61.52 171.58 63.31L171.58 63.31L145.82 70.48L154.34 76.53L152.10 102.07L152.10 102.29Q155.68 102.07 171.58 97.81L171.58 97.81Q188.83 93.11 197.12 98.93L197.12 98.93Q199.36 100.72 201.38 103.41ZM104.83 81.68L104.83 81.68Q104.83 84.15 101.47 88.85L101.47 88.85Q100.35 90.19 99.90 91.09L99.90 91.09Q98.34 94.67 94.30 113.04L94.30 113.04Q92.06 123.57 89.38 127.38L89.38 127.38Q87.81 129.84 84.45 129.84L84.45 129.84Q80.42 127.60 77.95 123.35L77.95 123.35L66.53 125.36Q65.63 128.72 65.86 143.06L65.86 143.06Q68.77 143.06 79.97 139.47L79.97 139.47Q91.39 136.11 96.99 141.94L96.99 141.94L98.11 143.06Q98.11 145.07 95.87 145.75L95.87 145.75Q92.74 146.87 77.50 148.88L77.50 148.88Q70.56 150.00 65.86 151.79L65.86 151.79L65.63 197.49Q65.63 201.30 59.36 207.12L59.36 207.12Q54.21 205.33 51.52 193.01L51.52 193.01Q49.95 187.41 55.33 162.32L55.33 162.32Q56.45 156.50 56.90 153.81L56.90 153.81Q49.50 154.93 31.58 160.75L31.58 160.75L22.40 163.67Q21.73 163.89 21.28 163.89L21.28 163.89Q15.68 164.56 10.30 162.32L10.30 162.32Q7.17 160.75 4.93 158.51L4.93 158.51L4.70 157.17Q4.93 155.60 6.27 154.93L6.27 154.93Q7.17 154.71 20.38 152.47L20.38 152.47Q21.73 152.24 22.62 152.24L22.62 152.24Q41.22 148.88 56.90 145.30L56.90 145.30L57.12 127.38L41.89 130.74L40.32 134.32Q38.08 134.32 34.72 129.62L34.72 129.62Q34.50 129.17 34.05 128.72L34.05 128.72L27.55 102.29Q27.10 100.95 26.43 99.38L26.43 99.38L22.62 90.19Q22.40 88.85 22.40 87.28L22.40 87.28Q23.97 86.39 29.57 87.73L29.57 87.73Q30.69 87.95 31.36 87.95L31.36 87.95Q33.82 87.95 49.95 82.80L49.95 82.80Q56 80.79 58.02 81.01L58.02 81.01L58.02 66.67Q44.35 68.69 40.32 68.24L40.32 68.24Q35.39 67.57 32.03 64.66L32.03 64.66Q32.03 62.19 50.62 59.28L50.62 59.28Q56.22 58.39 57.57 57.94L57.57 57.94Q57.57 37.78 49.95 27.03L49.95 27.03L49.73 24.11Q54.66 18.51 70.11 31.06L70.11 31.06Q71.46 31.95 72.35 32.85L72.35 32.85Q72.35 35.54 69.44 46.07L69.44 46.07Q68.32 50.55 68.32 53.68L68.32 53.68Q70.78 53.68 77.73 51.22L77.73 51.22Q83.33 49.20 90.72 54.58L90.72 54.58Q90.72 57.49 88.48 58.39L88.48 58.39Q84.90 59.95 71.46 62.64L71.46 62.64Q69.22 63.09 67.65 63.54L67.65 63.54Q66.98 66.00 66.98 77.87L66.98 77.87L88.48 73.17Q90.72 72.95 92.51 72.95L92.51 72.95Q101.70 78.77 103.26 80.11L103.26 80.11Q104.16 80.79 104.83 81.68ZM88.03 84.59L88.03 84.59L85.79 81.68Q80.19 80.79 67.20 84.59L67.20 84.59L66.98 98.03Q70.56 97.59 73.70 98.93Q76.83 100.27 77.50 102.96L77.50 102.96Q76.16 104.08 70.11 105.20L70.11 105.20L66.98 106.10L66.98 118.42Q71.46 116.18 77.06 116.85L77.06 116.85Q78.85 116.85 80.42 117.30L80.42 117.30Q86.69 101.84 87.81 88.18L87.81 88.18Q88.03 86.16 88.03 84.59ZM57.12 100.95L58.02 86.83L38.08 93.33Q37.18 93.55 36.51 94.00L36.51 94.00L42.34 125.36L57.12 121.11L57.57 108.34L47.26 108.79Q45.25 108.11 45.25 106.10L45.25 106.10Q49.95 103.63 57.12 100.95L57.12 100.95Z" stroke="#000" fill="black" /></svg>