<svg width="224" height="224" version="1.1" xmlns="http://www.w3.org/2000/svg" xmlns:xlink="http://www.w3.org/1999/xlink"><path d="M158.82 51.30L158.82 51.30L156.80 53.31L125.89 56.45Q124.77 58.91 121.41 73.47L121.41 73.47Q126.11 77.28 126.34 77.28L126.34 77.28Q127.23 78.62 127.46 79.97L127.46 79.97L126.34 80.86Q122.30 81.09 98.34 84.00L98.34 84.00Q93.41 84.67 89.38 85.12L89.38 85.12L87.36 89.82Q86.91 90.27 86.46 90.50L86.46 90.50Q83.33 86.46 81.31 74.37L81.31 74.37Q80.64 71.01 79.97 68.99L79.97 68.99Q78.40 63.39 78.18 62.94L78.18 62.94L77.06 62.27Q73.47 62.05 63.17 64.96L63.17 64.96Q54.21 67.42 49.06 62.50L49.06 62.50Q47.49 61.15 45.92 58.91L45.92 58.91L47.26 57.79L76.83 55.78Q75.04 45.02 68.32 37.41L68.32 37.41Q68.32 35.84 71.23 34.50L71.23 34.50Q72.13 34.27 72.35 34.05L72.35 34.05Q79.07 34.05 86.24 38.30L86.24 38.30L86.91 40.10L86.91 54.21Q94.75 53.76 116.03 49.73L116.03 49.73L117.82 33.60Q117.82 27.33 115.14 23.74L115.14 23.74Q115.14 21.50 117.82 20.61L117.82 20.61Q126.56 21.73 131.49 27.33L131.49 27.33Q133.28 29.57 133.73 32.03L133.73 32.03Q129.70 39.20 127.90 47.04L127.90 47.04L146.27 45.25Q157.25 45.25 158.82 51.30ZM112.67 73.47L115.14 57.79Q110.88 58.02 87.81 61.38L87.81 61.38L89.60 79.07Q109.09 74.59 112.67 73.47L112.67 73.47ZM195.78 96.77L195.78 96.77Q195.78 100.13 192.64 101.47L192.64 101.47L129.02 101.92L101.02 103.49L107.97 109.09L108.19 116.03L134.85 112.90Q147.84 112.67 159.26 123.87L159.26 123.87Q159.26 127.23 154.56 131.71L154.56 131.71Q151.87 134.18 150.98 135.52L150.98 135.52Q147.84 140 143.81 154.34L143.81 154.34Q140.45 166.88 134.85 172.26L134.85 172.26Q131.26 172.48 129.92 168.90L129.92 168.90Q129.47 168 129.25 166.88L129.25 166.88Q126.34 167.10 88.26 171.14L88.26 171.14Q81.09 171.81 75.26 172.26L75.26 172.26L74.14 174.94Q69.66 174.94 66.08 167.55L66.08 167.55Q65.63 166.66 65.41 165.76L65.41 165.76L63.39 155.90Q59.81 137.09 51.97 123.65L51.97 123.65Q51.97 121.41 53.09 120.96L53.09 120.96Q61.82 121.41 65.41 123.20L65.41 123.20L96.77 118.05Q96.77 109.98 93.41 104.16L93.41 104.16Q68.54 106.85 46.59 110.88L46.59 110.88L26.66 115.14Q25.76 115.36 24.86 115.36L24.86 115.36Q19.49 115.81 14.56 112.22L14.56 112.22Q11.65 110.21 10.30 107.30L10.30 107.30L11.65 105.95Q109.09 95.65 131.26 92.51L131.26 92.51Q135.52 92.06 139.55 91.39L139.55 91.39L172.03 86.02Q179.87 84.90 189.73 91.39L189.73 91.39Q193.31 94.08 195.78 96.77ZM107.97 123.87L107.97 123.87L107.74 136.64Q120.29 133.73 125.44 136.86L125.44 136.86Q127.01 137.76 128.13 139.33L128.13 139.33Q128.13 141.57 127.46 142.02L127.46 142.02Q126.34 142.91 108.86 144.93L108.86 144.93Q107.52 145.15 106.85 145.15L106.85 145.15L106.62 161.95L121.63 159.49Q126.34 159.26 130.37 160.61L130.37 160.61Q137.98 135.30 137.54 125.44L137.54 125.44Q137.09 119.84 112.45 123.42L112.45 123.42Q109.09 123.87 107.97 123.87ZM97.22 163.74L97.22 163.74L97.22 146.50L85.79 147.84Q81.31 147.62 79.74 143.81L79.74 143.81Q81.98 142.91 94.98 139.78L94.98 139.78L96.77 139.33L96.77 125.44Q75.49 128.35 67.87 130.59L67.87 130.59Q69.89 138.43 75.49 166.88L75.49 166.88Q84.45 164.86 97.22 163.74ZM121.63 183.01L121.63 183.01Q120.29 180.77 120.29 178.08L120.29 178.08L120.96 177.41Q148.51 185.47 155.68 193.54L155.68 193.54Q160.38 198.91 160.38 207.20L160.38 207.20Q160.38 213.47 156.58 213.02L156.58 213.02Q155.23 212.80 153.44 211.46L153.44 211.46Q151.87 210.56 145.38 204.06L145.38 204.06L144.26 202.72Q133.28 191.97 121.63 183.01ZM90.94 184.35L90.94 184.35Q90.94 187.94 86.91 190.40L86.91 190.40L66.30 204.06Q49.95 213.70 36.29 213.70L36.29 213.70Q33.15 213.70 31.36 213.47L31.36 213.47L56.45 198.24Q69.66 189.28 73.47 182.56L73.47 182.56L75.94 177.86Q76.61 177.18 77.50 176.74L77.50 176.74Q85.79 177.63 90.94 184.35Z" stroke="#000" fill="black" /></svg>