<?xml version="1.0" encoding="UTF-8" standalone="no"?>
        <svg 
    viewBox="3.4423828125 -85.7666015625 448.0224609375 56.9091796875"
    width="444.580078125"
    height="142.67578125"
   xmlns="http://www.w3.org/2000/svg"
   xmlns:svg="http://www.w3.org/2000/svg">
   <path d="M81.01-12.30L81.45-13.92Q101.37-13.62 113.67-11.39Q125.98-9.16 132.24-5.90Q138.50-2.64 139.97 0.88Q141.43 4.39 139.53 7.43Q137.62 10.47 133.67 12.19Q129.71 13.92 125.02 13.62Q120.34 13.33 116.38 10.03L116.38 10.03Q111.91 5.20 103.09-1.14Q94.26-7.47 81.01-12.30L81.01-12.30ZM50.10-19.04L50.10-19.04L74.56-3.44Q73.39-2.12 71.04-1.57Q68.70-1.03 64.67-1.83L64.67-1.83Q57.50 1.98 47.64 5.13Q37.79 8.28 26.51 10.58Q15.23 12.89 3.88 14.14L3.88 14.14L3.44 12.60Q12.45 8.79 21.46 3.33Q30.47-2.12 38.01-7.98Q45.56-13.84 50.10-19.04ZM104.37-46.07L104.37-61.38L85.18-61.38L85.18-46.07L104.37-46.07ZM5.42-76.68L4.17-80.86L113.23-80.86L124.95-95.43Q124.95-95.43 127.11-93.86Q129.27-92.29 132.64-89.76Q136.01-87.23 139.67-84.41Q143.33-81.59 146.41-79.03L146.41-79.03Q145.75-76.68 142.02-76.68L142.02-76.68L85.18-76.68L85.18-65.55L102.91-65.55L112.50-76.03L132.42-61.08Q131.69-60.13 130.26-59.25Q128.83-58.37 126.42-57.93L126.42-57.93L126.42-19.04Q126.34-18.53 123.27-17.40Q120.19-16.26 115.94-15.34Q111.69-14.43 108.18-14.43L108.18-14.43L104.37-14.43L104.37-20.73L46.22-20.73L46.22-18.16Q46.22-17.14 43.40-15.56Q40.58-13.99 36.29-12.71Q32.01-11.43 27.61-11.43L27.61-11.43L24.46-11.43L24.46-74.27L47.39-65.55L63.87-65.55L63.87-76.68L5.42-76.68ZM46.22-41.82L46.22-24.90L63.87-24.90L63.87-41.82L46.22-41.82ZM46.22-61.38L46.22-46.07L63.87-46.07L63.87-61.38L46.22-61.38ZM85.18-24.90L104.37-24.90L104.37-41.82L85.18-41.82L85.18-24.90ZM83.72-110.23L83.72-128.25L110.82-125.98Q110.74-124.51 109.68-123.38Q108.62-122.24 105.47-121.80L105.47-121.80L105.47-110.23L111.18-110.23L121.95-123.78Q121.95-123.78 123.93-122.28Q125.90-120.78 129.02-118.43Q132.13-116.09 135.53-113.45Q138.94-110.82 141.72-108.47L141.72-108.47Q141.06-106.05 137.40-106.05L137.40-106.05L105.47-106.05L105.47-87.89Q105.47-87.30 102.69-86.35Q99.90-85.40 95.73-84.63Q91.55-83.86 87.30-83.86L87.30-83.86L83.72-83.86L83.72-91.19L64.82-91.19L64.82-87.16Q64.82-86.57 62.15-85.58Q59.47-84.59 55.37-83.86Q51.27-83.13 47.09-83.13L47.09-83.13L43.51-83.13L43.51-106.05L13.77-106.05L12.60-110.23L43.51-110.23L43.51-128.25L70.39-125.98Q70.09-124.51 69.03-123.38Q67.97-122.24 64.82-121.80L64.82-121.80L64.82-110.23L83.72-110.23ZM83.72-106.05L64.82-106.05L64.82-95.43L83.72-95.43L83.72-106.05ZM163.18-108.47L161.87-112.65L233.28-112.65L241.33-122.97L261.91-108.03Q260.38-105.69 255.91-104.88L255.91-104.88Q255.32-98.58 254.30-89.36Q253.27-80.13 252.03-71.26L252.03-71.26L263.67-71.26L274.95-82.18L293.55-66.14Q292.68-65.11 291.10-64.34Q289.53-63.57 286.96-63.13L286.96-63.13Q285.86-42.41 284.14-28.38Q282.42-14.36 279.53-6.01Q276.64 2.34 271.95 6.01L271.95 6.01Q267.55 9.59 262.06 11.24Q256.57 12.89 247.78 12.74L247.78 12.74Q247.92 7.91 247.12 4.17Q246.31 0.44 244.04-1.83L244.04-1.83Q241.70-4.39 237.23-6.37Q232.76-8.35 226.83-9.59L226.83-9.59L226.98-11.28Q230.93-10.99 235.69-10.69Q240.45-10.40 244.56-10.22Q248.66-10.03 250.49-10.03L250.49-10.03Q252.39-10.03 253.67-10.36Q254.96-10.69 256.05-11.72L256.05-11.72Q259.57-14.50 261.69-28.78Q263.82-43.07 265.21-67.02L265.21-67.02L251.51-67.02L250.34-59.25Q246.53-57.20 241.22-56.69Q235.91-56.18 228.59-57.42L228.59-57.42Q229.91-65.48 231.04-74.63Q232.18-83.79 233.06-92.58Q233.94-101.37 234.45-108.47L234.45-108.47L211.96-108.47Q211.67-94.56 210.61-80.93Q209.55-67.31 206.54-54.31Q203.54-41.31 197.42-29.22Q191.31-17.14 180.91-6.26Q170.51 4.61 154.61 13.92L154.61 13.92L153.15 12.01Q166.33-2.20 173.55-17.10Q180.76-32.01 183.87-47.28Q186.99-62.55 187.68-77.89Q188.38-93.24 188.38-108.47L188.38-108.47L163.18-108.47ZM308.72-31.20L308.72-88.33L308.72-95.73L327.17-88.33L330.03-88.33L330.03-102.47L304.98-102.47L303.74-106.64L330.03-106.64L330.03-128.25L355.22-126.27Q355.00-124.80 354.02-123.74Q353.03-122.68 350.24-122.24L350.24-122.24L350.24-106.64L353.25-106.64L362.55-119.53Q362.55-119.53 365.44-117.08Q368.33-114.62 372.25-111.18Q376.17-107.74 379.32-104.88L379.32-104.88Q378.66-102.47 375.15-102.47L375.15-102.47L350.24-102.47L350.24-88.33L352.81-88.33L361.23-97.19L378.15-84.30Q377.56-83.50 376.21-82.73Q374.85-81.96 372.73-81.59L372.73-81.59L372.73-64.67L394.04-64.67L394.04-110.08L375.59-110.08L374.41-114.33L416.09-114.33L425.98-127.37Q425.98-127.37 427.81-125.90Q429.64-124.44 432.46-122.17Q435.28-119.90 438.39-117.33Q441.50-114.77 443.99-112.50L443.99-112.50Q443.33-110.08 439.82-110.08L439.82-110.08L416.24-110.08L416.24-64.67L419.53-64.67L429.79-79.47Q429.79-79.47 431.65-77.86Q433.52-76.25 436.41-73.65Q439.31-71.04 442.46-68.19Q445.61-65.33 448.02-62.84L448.02-62.84Q447.36-60.42 443.85-60.42L443.85-60.42L416.24-60.42L416.24 8.28Q416.16 9.23 411.47 11.76Q406.79 14.28 398.22 14.28L398.22 14.28L394.04 14.28L394.04-60.42L372.73-60.42L372.73-38.67Q372.73-38.09 370.28-36.84Q367.82-35.60 364.23-34.53Q360.64-33.47 357.42-33.47L357.42-33.47L354.27-33.47L354.27-37.65L349.95-37.65L349.95-20.73L354.13-20.73L363.87-33.33Q363.87-33.33 366.91-30.94Q369.95-28.56 374.05-25.20Q378.15-21.83 381.45-18.90L381.45-18.90Q380.79-16.48 377.27-16.48L377.27-16.48L349.95-16.48L349.95 9.01Q349.95 10.03 345.59 12.23Q341.24 14.43 333.47 14.43L333.47 14.43L329.74 14.43L329.74-16.48L304.47-16.48L303.30-20.73L329.74-20.73L329.74-37.65L326.37-37.65L326.37-36.77Q326.37-35.89 324.17-34.57Q321.97-33.25 318.49-32.23Q315.01-31.20 311.28-31.20L311.28-31.20L308.72-31.20ZM331.35-41.82L331.35-61.23L326.37-61.23L326.37-41.82L331.35-41.82ZM354.27-61.23L348.49-61.23L348.49-41.82L354.27-41.82L354.27-61.23ZM326.37-65.41L331.35-65.41L331.35-84.16L326.37-84.16L326.37-65.41ZM348.49-84.16L348.49-65.41L354.27-65.41L354.27-84.16L348.49-84.16Z"/>
    </svg>
        